<svg xmlns="http://www.w3.org/2000/svg" viewBox="0 0 64 64">
  <defs>
    <linearGradient id="sg" x1="0%" y1="0%" x2="100%" y2="100%">
      <stop offset="0%" style="stop-color:#00f5d4"/>
      <stop offset="100%" style="stop-color:#7c3aed"/>
    </linearGradient>
  </defs>
  <!-- Shield shape -->
  <path d="M32 4 L56 14 L56 34 C56 47 45 57 32 61 C19 57 8 47 8 34 L8 14 Z"
        fill="url(#sg)" opacity="0.15"/>
  <path d="M32 4 L56 14 L56 34 C56 47 45 57 32 61 C19 57 8 47 8 34 L8 14 Z"
        fill="none" stroke="url(#sg)" stroke-width="2.5"/>
  <!-- Lock icon inside shield -->
  <rect x="23" y="31" width="18" height="13" rx="3" fill="url(#sg)"/>
  <path d="M26 31 L26 26 C26 21.6 38 21.6 38 26 L38 31"
        fill="none" stroke="url(#sg)" stroke-width="2.5" stroke-linecap="round"/>
  <circle cx="32" cy="37" r="2" fill="#030818"/>
</svg>
